<svg xmlns="http://www.w3.org/2000/svg" viewBox="0 0 16 16"><path fill="currentColor" d="M1.331 6.366C5.358 4.672 8.043 3.556 9.386 3.017c3.836-1.541 4.633-1.808 5.152-1.817.115-.002.37.025.536.155.14.11.178.257.196.361.019.104.042.34.023.525-.207 2.108-1.107 7.225-1.565 9.586-.193 1-.574 1.334-.943 1.367-.803.071-1.412-.512-2.189-1.003-1.216-.77-1.902-1.249-3.082-2-1.364-.867-.48-1.344.298-2.123.203-.204 3.737-3.307 3.805-3.588.009-.036.017-.167-.064-.236s-.2-.046-.286-.027c-.122.027-2.064 1.266-5.826 3.718-.551.365-1.05.543-1.498.534-.493-.01-1.442-.269-2.147-.49-.865-.272-1.552-.415-1.492-.876.03-.24.373-.485 1.027-.74Z"/></svg>
